<?xml version="1.0" encoding="UTF-8" standalone="no"?>
<!-- Created with Inkscape (http://www.inkscape.org/) -->

<svg
   width="340"
   height="340"
   viewBox="0 0 89.958331 89.958333"
   version="1.1"
   id="svg1"
   xml:space="preserve"
   xmlns="http://www.w3.org/2000/svg"
   xmlns:svg="http://www.w3.org/2000/svg"><defs
     id="defs1" /><g
     id="layer1"><g
       style="color:#000000;fill:none;stroke-width:1.5"
       id="g1"
       transform="matrix(3.9099941,0,0,3.9383406,-1.8950227,-4.8949207)"><path
         d="M 12,21 V 7 c 0,-1.10457 0.8954,-2 2,-2 h 7.4 C 21.7314,5 22,5.26863 22,5.6 v 13.1143"
         stroke="#000000"
         stroke-width="1.5"
         stroke-linecap="round"
         id="path1" /><path
         d="M 12,21 V 7 C 12,5.89543 11.1046,5 10,5 H 2.6 C 2.26863,5 2,5.26863 2,5.6 v 13.1143"
         stroke="#000000"
         stroke-width="1.5"
         stroke-linecap="round"
         id="path2" /><path
         d="m 14,19 h 8"
         stroke="#000000"
         stroke-width="1.5"
         stroke-linecap="round"
         id="path3" /><path
         d="M 10,19 H 2"
         stroke="#000000"
         stroke-width="1.5"
         stroke-linecap="round"
         id="path4" /><path
         d="m 12,21 c 0,-1.1046 0.8954,-2 2,-2"
         stroke="#000000"
         stroke-width="1.5"
         stroke-linecap="round"
         stroke-linejoin="round"
         id="path5" /><path
         d="m 12,21 c 0,-1.1046 -0.8954,-2 -2,-2"
         stroke="#000000"
         stroke-width="1.5"
         stroke-linecap="round"
         stroke-linejoin="round"
         id="path6" /></g></g></svg>
